<svg aria-hidden="true" style="position: absolute; width: 0; height: 0; overflow: hidden;" version="1.1" 
    xmlns="http://www.w3.org/2000/svg" 
    xmlns:xlink="http://www.w3.org/1999/xlink">
    <defs>
        <symbol id="icon-clearclose" viewBox="0 0 24 24">
            <title>clearclose</title>
            <path d="M18.984 6.422l-5.578 5.578 5.578 5.578-1.406 1.406-5.578-5.578-5.578 5.578-1.406-1.406 5.578-5.578-5.578-5.578 1.406-1.406 5.578 5.578 5.578-5.578z"></path>
        </symbol>
        <symbol id="icon-menu11" viewBox="0 0 24 24">
            <title>menu11</title>
            <path d="M3 6h18v2.016h-18v-2.016zM3 12.984v-1.969h18v1.969h-18zM3 18v-2.016h18v2.016h-18z"></path>
        </symbol>
        <symbol id="icon-notifications" viewBox="0 0 24 24">
            <title>notifications</title>
            <path d="M18 15.984l2.016 2.016v0.984h-16.031v-0.984l2.016-2.016v-4.969q0-2.344 1.195-4.078t3.305-2.25v-0.703q0-0.609 0.422-1.055t1.078-0.445 1.078 0.445 0.422 1.055v0.703q2.109 0.516 3.305 2.25t1.195 4.078v4.969zM12 21.984q-0.844 0-1.43-0.563t-0.586-1.406h4.031q0 0.797-0.609 1.383t-1.406 0.586z"></path>
        </symbol>
        <symbol id="icon-notifications_none" viewBox="0 0 24 24">
            <title>notifications_none</title>
            <path d="M15.984 17.016v-6q0-1.922-1.078-3.211t-2.906-1.289-2.906 1.289-1.078 3.211v6h7.969zM18 15.984l2.016 2.016v0.984h-16.031v-0.984l2.016-2.016v-4.969q0-2.344 1.195-4.078t3.305-2.25v-0.703q0-0.609 0.422-1.055t1.078-0.445 1.078 0.445 0.422 1.055v0.703q2.109 0.516 3.305 2.25t1.195 4.078v4.969zM12 21.984q-0.797 0-1.406-0.586t-0.609-1.383h4.031q0 0.797-0.609 1.383t-1.406 0.586z"></path>
        </symbol>
        <symbol id="icon-notifications_off" viewBox="0 0 24 24">
            <title>notifications_off</title>
            <path d="M18 14.672l-8.953-9.422q0.141-0.047 0.375-0.164l0.328-0.164h0.047l0.281-0.141q0.047 0 0.188-0.047t0.234-0.047v-0.703q0-0.609 0.422-1.055t1.078-0.445 1.078 0.445 0.422 1.055v0.703q2.109 0.516 3.305 2.25t1.195 4.078v3.656zM12 21.984q-0.844 0-1.43-0.563t-0.586-1.406h4.031q0 0.844-0.586 1.406t-1.43 0.563zM7.828 6.141q1.125 1.172 5.883 6.047t7.289 7.547l-1.266 1.266-2.016-2.016h-13.734v-0.984l2.016-2.016v-5.016q0-1.922 0.797-3.422l-2.813-2.766 1.266-1.313z"></path>
        </symbol>
        <symbol id="icon-notifications_active" viewBox="0 0 24 24">
            <title>notifications_active</title>
            <path d="M12 21.984q-0.844 0-1.43-0.586t-0.586-1.383h3.984q0 0.844-0.563 1.406t-1.406 0.563zM18 11.016v4.969l2.016 2.016v0.984h-16.031v-0.984l2.016-2.016v-4.969q0-2.344 1.195-4.078t3.305-2.25v-0.703q0-0.609 0.422-1.055t1.078-0.445 1.078 0.445 0.422 1.055v0.703q2.109 0.516 3.305 2.25t1.195 4.078zM19.969 10.5q-0.094-1.688-1.125-3.563t-2.391-2.859l1.406-1.406q3.891 3 4.125 7.828h-2.016zM7.594 4.078q-1.359 0.984-2.414 2.859t-1.148 3.563h-2.016q0.234-4.828 4.125-7.828z"></path>
        </symbol>
        <symbol id="icon-notifications_paused" viewBox="0 0 24 24">
            <title>notifications_paused</title>
            <path d="M14.484 9.797v-1.781h-4.969v1.781h2.766l-2.766 3.422v1.781h4.969v-1.781h-2.766zM18 15.984l2.016 2.016v0.984h-16.031v-0.984l2.016-2.016v-4.969q0-2.344 1.195-4.078t3.305-2.25v-0.703q0-0.609 0.422-1.055t1.078-0.445 1.078 0.445 0.422 1.055v0.703q2.109 0.516 3.305 2.25t1.195 4.078v4.969zM12 21.984q-0.844 0-1.43-0.563t-0.586-1.406h4.031q0 0.797-0.609 1.383t-1.406 0.586z"></path>
        </symbol>
        <symbol id="icon-search2" viewBox="0 0 24 24">
            <title>search2</title>
            <path d="M9.516 14.016q1.875 0 3.188-1.313t1.313-3.188-1.313-3.188-3.188-1.313-3.188 1.313-1.313 3.188 1.313 3.188 3.188 1.313zM15.516 14.016l4.969 4.969-1.5 1.5-4.969-4.969v-0.797l-0.281-0.281q-1.781 1.547-4.219 1.547-2.719 0-4.617-1.875t-1.898-4.594 1.898-4.617 4.617-1.898 4.594 1.898 1.875 4.617q0 0.984-0.469 2.227t-1.078 1.992l0.281 0.281h0.797z"></path>
        </symbol>
        <symbol id="icon-close2" viewBox="0 0 20 20">
            <title>close2</title>
            <path d="M10 8.586l-7.071-7.071-1.414 1.414 7.071 7.071-7.071 7.071 1.414 1.414 7.071-7.071 7.071 7.071 1.414-1.414-7.071-7.071 7.071-7.071-1.414-1.414-7.071 7.071z"></path>
        </symbol>
        <symbol id="icon-search111" viewBox="0 0 20 20">
            <title>search111</title>
            <path d="M12.9 14.32c-1.34 1.049-3.050 1.682-4.908 1.682-4.418 0-8-3.582-8-8s3.582-8 8-8c4.418 0 8 3.582 8 8 0 1.858-0.633 3.567-1.695 4.925l0.013-0.018 5.35 5.33-1.42 1.42-5.33-5.34zM8 14c3.314 0 6-2.686 6-6s-2.686-6-6-6v0c-3.314 0-6 2.686-6 6s2.686 6 6 6v0z"></path>
        </symbol>
        <symbol id="icon-menu1111" viewBox="0 0 20 20">
            <title>menu1111</title>
            <path d="M16.4 9h-12.8c-0.552 0-0.6 0.447-0.6 1s0.048 1 0.6 1h12.8c0.552 0 0.6-0.447 0.6-1s-0.048-1-0.6-1zM16.4 13h-12.8c-0.552 0-0.6 0.447-0.6 1s0.048 1 0.6 1h12.8c0.552 0 0.6-0.447 0.6-1s-0.048-1-0.6-1zM3.6 7h12.8c0.552 0 0.6-0.447 0.6-1s-0.048-1-0.6-1h-12.8c-0.552 0-0.6 0.447-0.6 1s0.048 1 0.6 1z"></path>
        </symbol>
    </defs>
</svg>
